<svg data-v-29081953="" xmlns="http://www.w3.org/2000/svg" viewBox="0 0 300 300"><!----><defs data-v-29081953=""><!----></defs><rect data-v-29081953="" fill="#002C73" x="0" y="0" width="300px" height="300px" class="logo-background-square"></rect><defs data-v-29081953=""><!----></defs><g data-v-29081953="" id="7fc8a215-5a96-4ce2-b1b8-acdf9c360a64" fill="#ffffff" transform="matrix(2.828527807559902,0,0,2.828527807559902,91.27830934986328,135.26027716887805)"><path d="M8.51 3.78C8.19 5.25 7.81 6.58 7.21 8.01C6.64 6.57 6.26 5.25 5.92 3.78C5.82 3.26 4.03 3.26 4.17 3.78L4.45 4.72C4.17 5.82 3.82 6.90 3.35 8.01C2.77 6.55 2.38 5.25 2.06 3.78C1.96 3.26 0.17 3.26 0.31 3.78C0.94 6.06 2.28 9.27 2.83 9.87C3.07 10.12 3.65 10.12 3.89 9.87C4.30 9.39 4.77 8.19 5.21 6.82C5.77 8.26 6.37 9.52 6.68 9.87C6.93 10.12 7.50 10.11 7.77 9.87C8.32 9.28 9.63 6.06 10.28 3.78C10.42 3.26 8.62 3.26 8.51 3.78ZM14 10.05C16.09 10.05 17.30 8.82 17.30 6.72C17.30 4.61 16.09 3.36 14 3.36C11.91 3.36 10.70 4.61 10.70 6.72C10.70 8.82 11.91 10.05 14 10.05ZM14 8.82C12.95 8.82 12.33 8.06 12.33 6.72C12.33 5.35 12.95 4.59 14 4.59C15.05 4.59 15.67 5.35 15.67 6.72C15.67 8.06 15.05 8.82 14 8.82ZM22.41 3.43C21.32 3.46 20.51 3.88 19.98 4.54L19.77 3.68C19.67 3.29 18.34 3.28 18.34 3.81L18.34 9.63C18.34 10.19 19.99 10.19 19.99 9.63L19.99 5.94C20.64 5.25 21.29 5.04 22.11 5.00C22.60 4.98 22.93 3.42 22.41 3.43ZM29.41 8.50C28.57 8.79 28.15 8.16 27.75 7.50C27.57 7.20 27.38 6.89 27.17 6.65C28.13 5.80 28.95 4.90 29.82 3.81C30.24 3.28 28.42 3.26 27.99 3.81C27.05 4.96 26.39 5.60 25.35 6.43L25.35 0.63C25.35-0.03 23.72 0.67 23.72 1.33L23.72 9.63C23.72 10.19 25.35 10.19 25.35 9.63L25.35 8.12C25.62 7.92 25.86 7.74 26.11 7.55C26.36 7.84 26.59 8.19 26.82 8.54C27.41 9.48 28.03 10.39 29.46 9.90C30.04 9.69 29.97 8.29 29.41 8.50ZM33.73 10.05C35.81 10.05 37.03 8.82 37.03 6.72C37.03 4.61 35.81 3.36 33.73 3.36C31.64 3.36 30.42 4.61 30.42 6.72C30.42 8.82 31.64 10.05 33.73 10.05ZM33.73 8.82C32.68 8.82 32.06 8.06 32.06 6.72C32.06 5.35 32.68 4.59 33.73 4.59C34.78 4.59 35.39 5.35 35.39 6.72C35.39 8.06 34.78 8.82 33.73 8.82ZM45.16 8.48C45.04 8.54 44.94 8.57 44.84 8.57C44.56 8.57 44.42 8.37 44.42 7.97L44.42 3.78C44.42 3.22 42.78 3.22 42.78 3.78L42.78 7.64C42.18 8.34 41.58 8.61 41.02 8.61C40.18 8.61 39.72 8.15 39.72 7.13L39.72 3.54C39.72 2.88 38.09 3.58 38.09 4.24L38.09 7.70C38.09 9.16 38.95 10.04 40.35 10.04C41.30 10.04 42.18 9.70 42.87 9.00C43.05 9.76 43.51 10.04 44.07 10.04C44.42 10.04 44.79 9.94 45.16 9.80C45.75 9.53 45.72 8.22 45.16 8.48ZM48.08 5.29C48.08 4.84 48.75 4.58 49.62 4.58C50.33 4.58 51.17 4.76 51.91 5.15C52.33 5.39 52.29 4.07 51.88 3.88C51.20 3.54 50.34 3.37 49.50 3.37C47.92 3.37 46.44 3.98 46.44 5.33C46.44 6.80 47.98 7 49.20 7.20C50.01 7.32 50.68 7.43 50.68 7.92C50.68 8.46 49.97 8.75 49.06 8.75C48.33 8.75 47.49 8.57 46.76 8.18C46.31 7.97 46.38 9.35 46.77 9.55C47.46 9.87 48.36 10.05 49.22 10.05C50.81 10.05 52.32 9.42 52.32 7.95C52.32 6.34 50.76 6.16 49.53 5.98C48.73 5.87 48.08 5.75 48.08 5.29ZM59.65 6.23C59.65 4.38 58.63 3.37 56.59 3.37C54.46 3.37 53.35 4.66 53.35 6.66C53.35 9.04 55.08 10.04 56.80 10.04C57.58 10.04 58.32 9.83 58.97 9.42C59.36 9.17 59.36 8.02 58.84 8.25C58.13 8.57 57.51 8.75 56.92 8.75C55.94 8.75 55.03 8.27 55.01 7.28C55.38 7.34 55.80 7.36 56.18 7.36C57.95 7.36 59.65 6.89 59.65 6.23ZM55.03 6.10C55.05 5.03 55.76 4.62 56.66 4.62C57.64 4.62 58.16 5.08 58.16 5.77C58.16 5.98 57.25 6.16 56.08 6.16C55.75 6.16 55.40 6.15 55.03 6.10Z"></path></g><defs data-v-29081953=""><!----></defs><g data-v-29081953="" id="48b0fbfe-1afa-4953-b05b-7328e204ca3e" stroke="none" fill="#FFD009" transform="matrix(0.42192469711222186,0,0,0.42192469711222186,38.442674541071234,128.79764921763731)"><switch><g><path d="M39.154 63.066a81.775 81.775 0 0 1-1.344 3.791c-3.702 9.623-9.257 19.288-9.257 21.9 0 5.649 8.384 10.229 21.336 10.229 12.951 0 21.337-4.579 21.337-10.229 0-2.572-5.219-11.968-8.818-21.437a94.908 94.908 0 0 1-1.488-4.246 112.856 112.856 0 0 1-21.766-.008zM77.568 17.358c-.524-.533-1.038-1.063-1.548-1.586-2.385 1.395-6.158 1.837-10.157.937-6.164-1.386-10.507-5.42-9.699-9.007.433-1.919 2.258-3.315 4.798-3.993-3.128-1.38-6.65-2.192-10.895-2.192-8.593 0-13.796 3.28-19.18 8.024 2.645.722 4.83 2.216 6.114 4.459 3.231 5.642-.419 13.803-8.152 18.231-7.734 4.429-16.62 3.444-19.852-2.2a8.81 8.81 0 0 1-.515-1.063c-2.888 3.237-4.791 6.958-4.791 12.049 0 10.425 20.763 18.873 46.375 18.873 25.61 0 46.374-8.448 46.374-18.873 0-11.11-10.479-15.087-18.872-23.659zM47.743 49.285c-3.278 5.101-8.624 7.505-11.942 5.374-3.316-2.132-3.351-7.995-.074-13.097 3.278-5.1 8.625-7.504 11.941-5.373 3.317 2.132 3.352 7.996.075 13.096zm36.469-3.889c-4.218 4.304-12.245 3.277-17.933-2.294-5.687-5.571-6.877-13.578-2.662-17.882 4.218-4.304 12.245-3.278 17.936 2.295 5.684 5.571 6.876 13.578 2.659 17.881z"></path></g></switch></g><!----></svg>