<svg data-v-d3f97b9e="" xmlns="http://www.w3.org/2000/svg" viewBox="0 0 57.09445563517175 60"><!----><!----><!----><!----><g data-v-d3f97b9e="" id="903ead17-fe40-48a4-ba33-c5743bcec361" transform="matrix(0.615580279000565,0,0,0.615580279000565,-2.272109290044895,-0.9338355886585887)" stroke="none" fill="black"><switch><g><path d="M39.154 63.066a81.775 81.775 0 0 1-1.344 3.791c-3.702 9.623-9.257 19.288-9.257 21.9 0 5.649 8.384 10.229 21.336 10.229 12.951 0 21.337-4.579 21.337-10.229 0-2.572-5.219-11.968-8.818-21.437a94.908 94.908 0 0 1-1.488-4.246 112.856 112.856 0 0 1-21.766-.008zM77.568 17.358c-.524-.533-1.038-1.063-1.548-1.586-2.385 1.395-6.158 1.837-10.157.937-6.164-1.386-10.507-5.42-9.699-9.007.433-1.919 2.258-3.315 4.798-3.993-3.128-1.38-6.65-2.192-10.895-2.192-8.593 0-13.796 3.28-19.18 8.024 2.645.722 4.83 2.216 6.114 4.459 3.231 5.642-.419 13.803-8.152 18.231-7.734 4.429-16.62 3.444-19.852-2.2a8.81 8.81 0 0 1-.515-1.063c-2.888 3.237-4.791 6.958-4.791 12.049 0 10.425 20.763 18.873 46.375 18.873 25.61 0 46.374-8.448 46.374-18.873 0-11.11-10.479-15.087-18.872-23.659zM47.743 49.285c-3.278 5.101-8.624 7.505-11.942 5.374-3.316-2.132-3.351-7.995-.074-13.097 3.278-5.1 8.625-7.504 11.941-5.373 3.317 2.132 3.352 7.996.075 13.096zm36.469-3.889c-4.218 4.304-12.245 3.277-17.933-2.294-5.687-5.571-6.877-13.578-2.662-17.882 4.218-4.304 12.245-3.278 17.936 2.295 5.684 5.571 6.876 13.578 2.659 17.881z"></path></g></switch></g><!----></svg>